<?xml version="1.0" encoding="utf-8"?>
<!-- Generator: Adobe Illustrator 19.2.1, SVG Export Plug-In . SVG Version: 6.00 Build 0)  -->
<svg version="1.1" id="Layer_1" xmlns="http://www.w3.org/2000/svg" xmlns:xlink="http://www.w3.org/1999/xlink" x="0px" y="0px"
	 width="713.3px" height="150px" viewBox="0 0 713.3 150" style="enable-background:new 0 0 713.3 150;" xml:space="preserve">
<style type="text/css">
	.st0{fill:none;}
	.st1{fill:#0096D5;}
	.st2{fill:#FFFFFF;}
</style>
<g>
	<rect class="st0" width="713.3" height="150"/>
	<g>
		<path d="M147.3,50.7L139,82.4c-1.5,5.9-4.1,10.3-7.6,13.2c-3.5,2.9-8,4.3-13.6,4.3c-4.8,0-8.5-1.2-11-3.5
			c-2.5-2.3-3.6-5.7-3.4-10.1c0.1-1.8,0.4-3.7,1-5.6l8-29.9h7.9l-7.9,30c-0.6,1.9-0.9,3.7-1,5.2c-0.1,2.3,0.4,4,1.7,5.3
			c1.3,1.3,3.2,1.9,5.9,1.9c3.2,0,5.8-0.9,7.8-2.7c2-1.8,3.5-4.7,4.6-8.7l8.2-31.1H147.3z"/>
		<path class="st1" d="M325.8,68.6c-0.3,6.2-1.7,11.7-4,16.5c-2.4,4.8-5.4,8.5-9.3,11c-3.8,2.5-8.2,3.8-13,3.8c-5.7,0-10.1-1.7-13-5
			c-3-3.3-4.3-7.9-4-13.7c0.3-5.9,1.7-11.3,4.1-16.2c2.4-4.9,5.6-8.6,9.5-11.2c3.9-2.6,8.3-3.9,13.1-3.9c5.6,0,9.8,1.6,12.7,4.9
			C324.8,58.2,326.1,62.7,325.8,68.6z M308.2,56.7c-3.1,0-5.9,1.1-8.5,3.2c-2.6,2.1-4.7,5.1-6.3,8.8s-2.5,7.9-2.8,12.4
			c-0.2,3.8,0.5,6.8,2.2,8.9c1.7,2.1,4.2,3.1,7.4,3.1c3.1,0,5.9-1.1,8.4-3.2c2.6-2.1,4.6-5,6.2-8.8c1.6-3.8,2.5-7.9,2.7-12.5
			c0.2-3.8-0.5-6.7-2.2-8.8C313.8,57.8,311.4,56.7,308.2,56.7z"/>
		<path class="st1" d="M429.6,99.2h-7.9l10.9-41.7h-13.4l1.8-6.8h34.8l-1.8,6.8h-13.5L429.6,99.2z"/>
		<path class="st1" d="M474.2,79.8l-5.1,19.4h-7.9L474,50.7h11.2c4.9,0,8.7,1,11.2,3.1c2.5,2.1,3.7,5.3,3.4,9.6
			c-0.2,3.7-1.3,6.7-3.4,9.2c-2,2.5-5,4.3-8.8,5.5l7.2,21h-8.6l-5.9-19.4H474.2z M476,73.3h4.1c3.8,0,6.6-0.8,8.6-2.5
			c1.9-1.7,3-3.9,3.1-6.8c0.1-2.3-0.4-4-1.7-5c-1.3-1-3.3-1.5-6-1.5h-3.9L476,73.3z"/>
		<path class="st1" d="M540.7,85.7h-16.1l-7.6,13.5h-8.4L537,50.6h9.1l3,48.6h-7.8L540.7,85.7z M540.5,78.8
			c-0.4-9.2-0.6-14.8-0.6-16.7c0-1.9,0-3.5,0.1-4.6c-1.4,3.1-3.1,6.5-5.2,10.2l-6.3,11.2H540.5z"/>
		<path class="st1" d="M632.8,99.2h-7.9l10.9-41.7h-13.4l1.8-6.8h34.8l-1.8,6.8h-13.5L632.8,99.2z"/>
		<path class="st1" d="M259.9,56.8c-3.4,0-6.5,1-9.3,3c-2.8,2-5.1,4.9-6.9,8.6c-1.8,3.8-2.8,7.9-3.1,12.5c-0.2,4,0.5,7.1,2.3,9.2
			c1.7,2.1,4.4,3.2,7.9,3.2c3.1,0,8.5-0.8,12.8-2.3l-0.4,6.8c-4.1,1.5-10,2.2-14.3,2.2c-5.5,0-9.7-1.6-12.7-4.9
			c-2.9-3.3-4.3-7.9-4-13.9c0.3-5.8,1.8-11.1,4.4-16.1c2.6-5,5.9-8.7,10-11.3c4-2.6,8.6-3.9,13.6-3.9c7.1,0,10.8,1,14.5,3.1
			l-3.5,6.5c-1.4-0.8-3.9-1.6-5.2-1.9C264.5,57.2,261.9,56.8,259.9,56.8z"/>
		<path d="M221.1,57.6h-0.7c-1.2,0-2.2,0.4-2.9,1.2s-1.4,2.4-2.1,4.8c-0.7,2.4-1.8,6.6-3.1,12.5l-0.4,1.7c-1.1,4.6-2.1,8.4-3,11.3
			c-0.9,2.9-2.2,5.3-3.8,7.3c-1.6,2-3.7,3-6.2,3c-2.5,0-4.6-1-6.3-3.1s-3-4.6-3.9-7.5c-1-2.9-2-6.8-3.1-11.5l-0.3-1.4
			c-1.4-5.8-2.4-9.9-3-12.2c-0.6-2.3-1.2-3.9-1.6-4.7c-0.4-0.8-0.9-1.1-1.5-1.1c-0.5,0-0.9,0.5-1.4,1.4c-0.5,1-1,2.7-1.7,5.2
			c-0.7,2.5-1.6,6.2-2.7,11.2l-0.4,1.7c-1.1,4.8-2.1,8.6-3.1,11.5c-0.9,2.9-2.2,5.4-3.9,7.4c-1.7,2.1-3.8,3.1-6.3,3.1h-4.4l1.7-6.8
			h0.7c1.2,0,2.1-0.4,2.8-1.2c0.7-0.8,1.4-2.4,2.1-4.9c0.7-2.4,1.8-6.6,3.2-12.5c0.2-0.7,0.3-1.3,0.4-1.6c1.1-4.7,2.1-8.4,3-11.3
			c0.9-2.9,2.2-5.3,3.8-7.3c1.6-2,3.7-3,6.1-3c2.5,0,4.6,1,6.3,3.1c1.7,2.1,3,4.6,3.9,7.5s2,6.8,3.1,11.6l0.3,1.4
			c1.3,5.7,2.3,9.7,3,12.1c0.6,2.4,1.2,3.9,1.6,4.7c0.4,0.8,0.9,1.1,1.5,1.1c0.5,0,1-0.5,1.4-1.4c0.5-1,1-2.7,1.7-5.1
			c0.7-2.5,1.6-6.2,2.7-11.2c0.2-0.7,0.3-1.2,0.4-1.6c1.1-4.7,2.1-8.6,3-11.5c0.9-2.9,2.3-5.4,3.9-7.5s3.8-3.1,6.3-3.1h4.4
			L221.1,57.6z"/>
		<path class="st1" d="M403.9,57.7h-0.6c-1.1,0-2,0.3-2.7,1c-0.7,0.7-1.3,2.1-2,4.2c-0.7,2.1-1.6,5.6-2.7,10.4l1.6-1h7.3l-1.4,5.6
			h-8.5c-1.1,4.6-2.1,8.3-3,11.1c-0.9,2.8-2.2,5.2-3.8,7.2s-3.6,3-6.1,3c-2.5,0-4.8-1-6.5-3.1c-1.7-2-2.7-4.5-3.7-7.5
			c-1-2.9-2-6.7-3.1-11.5l-0.3-1.4c-1.4-5.8-2.4-9.8-3-12.1c-0.6-2.3-1.2-3.9-1.6-4.6s-0.9-1.1-1.5-1.1c-0.5,0-0.9,0.5-1.4,1.4
			s-1,2.7-1.7,5.1c-0.7,2.5-1.6,6.2-2.7,11.1l-0.4,1.7c-1.1,4.7-2.1,8.6-3.1,11.4c-0.9,2.9-2.2,5.4-3.9,7.4c-1.7,2-3.7,3.1-6.3,3.1
			h-4.3l1.7-6.8h0.6c1.1,0,2-0.4,2.7-1.1c0.7-0.7,1.3-2.1,2-4.2c0.6-1.9,1.5-5.1,2.5-9.4c0.1-0.3,0.2-0.7,0.2-1l-1.6,1h-7.2l1.4-5.6
			h8.5c1.1-4.6,2-8.3,3-11.2c0.9-2.8,2.2-5.3,3.8-7.3s3.7-3,6.1-3c2.5,0,4.8,1,6.5,3.1c1.7,2.1,2.7,4.6,3.7,7.5
			c1,2.9,2,6.7,3.1,11.5l0.3,1.4c1.3,5.6,2.3,9.6,3,12c0.6,2.4,1.2,3.9,1.6,4.7c0.4,0.8,0.9,1.1,1.5,1.1c0.5,0,0.9-0.5,1.4-1.4
			c0.5-1,1-2.7,1.7-5.1c0.7-2.4,1.6-6.1,2.7-11.1c0.2-0.7,0.3-1.2,0.4-1.6c1.1-4.7,2.1-8.5,3-11.4c0.9-2.9,2.2-5.4,3.9-7.5
			c1.7-2.1,3.8-3.1,6.3-3.1h4.3L403.9,57.7z"/>
		<path class="st1" d="M593.9,56.8c-3.4,0-6.5,1-9.3,3c-2.8,2-5.1,4.9-6.9,8.6c-1.8,3.8-2.8,7.9-3.1,12.5c-0.2,4,0.5,7.1,2.3,9.2
			c1.7,2.1,4.4,3.2,7.9,3.2c3.1,0,8.5-0.8,12.8-2.3l-0.4,6.8c-4.1,1.5-10,2.2-14.3,2.2c-5.5,0-9.7-1.6-12.7-4.9
			c-2.9-3.3-4.3-7.9-4-13.9c0.3-5.8,1.8-11.1,4.4-16.1c2.6-5,5.9-8.7,10-11.3c4-2.6,8.6-3.9,13.6-3.9c7.1,0,10.8,1,14.5,3.1
			l-3.5,6.5c-1.4-0.8-3.9-1.6-5.2-1.9C598.5,57.2,595.9,56.8,593.9,56.8z"/>
		<g>
			<path d="M84.5,84.9c-0.2,4.6-2,8.2-5.4,10.8c-3.3,2.6-7.8,3.9-13.5,3.9c-4.7,0-9.3-0.1-11.4-0.4l1.7-6.7
				c2.7,0.2,6.3,0.1,10.2,0.1c3,0,5.5-0.6,7.3-1.9c1.8-1.3,2.7-2.7,2.8-4.9c0.1-1.5-0.3-2.8-1.2-4c-0.8-1.2-2.7-2.7-5.5-4.5
				c-2.3-1.5-3.9-2.8-5-4c-1-1.2-1.8-2.5-2.3-3.9c-0.5-1.4-0.7-3-0.6-4.7c0.1-2.8,1-5.3,2.4-7.4c1.5-2.2,3.5-3.8,6.1-5
				c2.6-1.2,6.3-1.8,9.4-1.8c3,0,6.7,0,10,0.1l-1.3,6.7c-5.6-0.1-7.6,0-9.8,0.2c-2.4,0.2-4.4,0.6-5.9,1.9C71,60.6,70.1,62,70,64
				c-0.1,1,0.1,1.9,0.4,2.7c0.3,0.8,0.8,1.5,1.4,2.2c0.7,0.7,2.1,1.7,4.3,3.1c3.3,2.1,5.6,4.2,6.8,6.1
				C84.1,80.1,84.6,82.4,84.5,84.9z"/>
		</g>
	</g>
</g>
</svg>
